<svg xmlns="http://www.w3.org/2000/svg" xmlns:xlink="http://www.w3.org/1999/xlink" width="405.36" height="131.12" viewBox="0 0 405.36 131.12">
  <defs>
    <clipPath id="clip-_40px_padding">
      <rect width="405.36" height="131.12"/>
    </clipPath>
  </defs>
  <g id="_40px_padding" data-name="40px padding" clip-path="url(#clip-_40px_padding)">
    <path id="JNJ_MT_Logo_Shorthand_SingleLine_Red_RGB" d="M209.72,30.21c.77-6.15,3.91-9.64,9.43-9.64,5.24,0,8.31,3.14,8.45,9.64H209.72m9.42-14.38c-9.22,0-15.64,6.5-15.64,18.44,0,11.45,5.94,17.88,15.64,17.88,7.96,0,12.99-4.54,14.25-11.38l-5.31-1.4c-.91,5.87-4.05,7.89-8.38,7.89-6.91,0-9.99-5.1-10.2-12.92h23.95V32.38c.01-12.22-6.62-16.55-14.31-16.55M314.8,30.21c.77-6.15,3.91-9.64,9.43-9.64,5.24,0,8.31,3.14,8.45,9.64H314.8m9.43-14.38c-9.22,0-15.64,6.5-15.64,18.44,0,11.45,5.94,17.88,15.64,17.88,7.96,0,12.99-4.54,14.25-11.38l-5.31-1.4c-.91,5.87-4.05,7.89-8.38,7.89-6.91,0-9.99-5.1-10.2-12.92h23.95V32.38c.01-12.22-6.63-16.55-14.31-16.55m36.24,0c-9.57,0-16.06,6.7-16.06,18.51,0,11.59,6.35,17.81,15.78,17.81,8.52,0,13.34-5.24,14.32-12.43l-5.52-1.33c-.98,6.56-3.77,8.8-8.38,8.8-6.7,0-10.13-4.89-10.13-13.27,0-8.73,3.63-13.13,9.85-13.13,4.4,0,7.61,2.17,8.66,8.38l5.52-1.33c-.98-7.12-5.8-12.01-14.04-12.01M195.48,2.56h-9.22L171.8,41.95,157.28,2.56h-9.64V51.44h6.07V9.33l15.57,42.11h4.68L189.4,9.26V51.44h6.08V2.56m59.48,44.62c-5.73,0-9.57-4.12-9.57-13.2,0-9.15,3.84-13.2,9.57-13.2s9.57,4.05,9.57,13.2c0,9.08-3.84,13.2-9.57,13.2M270.19,2.56h-5.8V23.23c-1.26-3.84-4.33-7.4-10.41-7.4-7.82,0-14.67,6.15-14.67,18.37,0,12.36,6.84,17.95,14.18,17.95,5.52,0,9.57-3.21,10.9-7.75v2.65a25.426,25.426,0,0,0,.35,4.4h5.87a47.448,47.448,0,0,1-.42-7.26V2.56m43.99,0H276.47v5.1h15.85V51.45h6.08V7.66h15.78V2.56m72.75,0h-5.8V51.44h5.8V28.47c0-4.89,2.44-8.17,7.61-8.17,5.1,0,7.54,3.28,7.54,8.17V51.45h5.8V27.28c0-6.56-4.05-11.45-11.24-11.45-4.82,0-8.38,2.17-9.71,6.08V2.56m-280.27,50c11.66,0,16.2-6.98,16.2-16.13V2.56H114.2V38.67c0,5.87-2.23,9.36-7.54,9.36-5.24,0-7.54-3.7-7.54-10.06v-6.7l-8.66,2.16v3c-.01,9.15,4.53,16.13,16.2,16.13m-46.1-5.1c-6.7,0-10.82-5.45-10.82-11.24A10.852,10.852,0,0,1,54,27.35L69.78,44.6a18.724,18.724,0,0,1-9.22,2.86m8.45-25c5.66,0,9.15,3.28,9.15,8.94a13.722,13.722,0,0,1-2.23,7.47L62.24,23.79a18.365,18.365,0,0,1,6.77-1.33M60.56,5.14c4.12,0,6.56,2.37,6.56,6.7,0,3.98-1.96,7.75-6.77,9.92l-3-3.35c-2.65-2.93-3.42-4.75-3.42-6.91,0-4.05,2.58-6.36,6.63-6.36M78.09,41.25c3.77-4.47,5.94-9.36,5.94-13.62,0-5.31-3.56-8.87-9.15-8.87a25.091,25.091,0,0,0-8.38,1.68l-.14-.28c5.31-2.86,7.54-5.52,7.54-9.22,0-5.31-4.75-9.5-13.13-9.5-9.64,0-14.39,5.38-14.39,12.08,0,3.63,1.54,7.26,5.59,11.66l.07.14c-6.84,3.28-9.99,8.59-9.99,14.04,0,7.19,5.52,13.2,14.04,13.2,4.89,0,10.62-2.03,15.78-5.66l4.19,4.54H87.02v-.35ZM18.72,52.56c11.66,0,16.2-6.98,16.2-16.13V2.56H26.26V38.67c0,5.87-2.23,9.36-7.54,9.36-5.24,0-7.54-3.7-7.54-10.06v-6.7L2.52,33.43v3c0,9.15,4.54,16.13,16.2,16.13" transform="translate(-2.52 38.56)" fill="#eb1700"/>
  </g>
</svg>
